<svg width="147" height="26" viewBox="0 0 147 26" fill="none" xmlns="http://www.w3.org/2000/svg">
<path d="M10.8162 6.76055C11.5546 6.76055 12.1531 6.16064 12.1531 5.42061L12.1531 2.00986C12.1531 1.26983 11.5546 0.669922 10.8162 0.669922L7.36967 0.669923C6.63135 0.669923 6.03283 1.26983 6.03283 2.00986V5.42061C6.03283 6.07198 5.56914 6.61479 4.95456 6.73551C4.88461 6.72418 4.81284 6.71829 4.7397 6.71829H1.33684C0.598514 6.71829 -6.45425e-08 7.31822 0 8.05823L3.01315e-07 11.5128C3.65857e-07 12.2529 0.598514 12.8528 1.33684 12.8528H4.7397C5.47802 12.8528 6.07654 13.4527 6.07654 14.1927V17.5596C6.07654 18.2996 6.67505 18.8995 7.41338 18.8995H10.8162C11.5546 18.8995 12.1531 18.2996 12.1531 17.5596V14.105C12.1531 13.365 11.5546 12.7651 10.8162 12.7651H7.41338C6.77146 12.7651 6.23522 12.3116 6.10613 11.7069C6.11545 11.643 6.12028 11.5777 6.12028 11.5112L6.12028 8.10048C6.12028 7.36045 6.71879 6.76055 7.45711 6.76055L10.8162 6.76055Z" fill="#FAFAFA"/>
<path d="M14.8403 18.8855C14.1019 18.8855 13.5034 19.4854 13.5034 20.2254L13.5034 23.6361C13.5034 24.3762 14.1019 24.9761 14.8403 24.9761H18.2868C19.0252 24.9761 19.6237 24.3762 19.6237 23.6361V20.2254C19.6237 19.574 20.0874 19.0312 20.7019 18.9105C20.7719 18.9218 20.8437 18.9277 20.9168 18.9277H24.3197C25.058 18.9277 25.6565 18.3278 25.6565 17.5878V14.1332C25.6565 13.3932 25.058 12.7932 24.3197 12.7932H20.9168C20.1785 12.7932 19.58 12.1933 19.58 11.4533V8.0864C19.58 7.34636 18.9814 6.74646 18.2431 6.74646H14.8403C14.1019 6.74646 13.5034 7.34636 13.5034 8.0864V11.541C13.5034 12.281 14.1019 12.8809 14.8403 12.8809H18.2431C18.885 12.8809 19.4213 13.3344 19.5504 13.9391C19.541 14.003 19.5362 14.0683 19.5362 14.1348L19.5362 17.5455C19.5362 18.2856 18.9377 18.8855 18.1994 18.8855H14.8403Z" fill="#FAFAFA"/>
<path d="M43.9184 13.2823C43.9184 11.6004 43.528 10.2902 42.7472 9.35192C41.9664 8.39588 40.882 7.91786 39.4939 7.91786C38.1405 7.91786 37.0995 8.38703 36.3707 9.32536C35.642 10.246 35.2776 11.5738 35.2776 13.3088C35.2776 15.0439 35.642 16.3806 36.3707 17.3189C37.0995 18.2572 38.1405 18.7264 39.4939 18.7264C40.882 18.7264 41.9664 18.2484 42.7472 17.2923C43.528 16.3186 43.9184 14.9819 43.9184 13.2823ZM44.0745 20.4791L43.9964 18.0359C43.58 18.9565 42.9207 19.647 42.0184 20.1073C41.1335 20.5676 40.1792 20.7978 39.1555 20.7978C38.2359 20.7978 37.3944 20.6208 36.631 20.2667C35.8675 19.8949 35.2169 19.3903 34.679 18.7529C34.1411 18.0979 33.7247 17.31 33.4298 16.3894C33.1348 15.4688 32.9873 14.4508 32.9873 13.3354C32.9873 12.22 33.1348 11.202 33.4298 10.2814C33.7247 9.36077 34.1411 8.57292 34.679 7.91786C35.2169 7.2628 35.8675 6.75823 36.631 6.40414C37.3944 6.03235 38.2359 5.84645 39.1555 5.84645C40.1966 5.84645 41.1335 6.06775 41.9664 6.51036C42.7992 6.95297 43.4325 7.59918 43.8663 8.44899V0.730536H46.1046V20.4791H44.0745Z" fill="#FAFAFA"/>
<path d="M46.9778 13.6349C46.9778 12.5338 47.1319 11.5376 47.4403 10.6463C47.7657 9.73744 48.211 8.95969 48.7763 8.31303C49.3586 7.66637 50.0609 7.16826 50.8831 6.81871C51.7052 6.45169 52.613 6.26817 53.6065 6.26817C54.5828 6.26817 55.4649 6.44295 56.2528 6.7925C57.0579 7.12457 57.743 7.59646 58.3082 8.20817C58.8906 8.81987 59.3359 9.56266 59.6443 10.4365C59.9526 11.2929 60.1067 12.2454 60.1067 13.2941V14.4214H49.2644C49.4015 15.8021 49.8468 16.9119 50.6004 17.7508C51.3712 18.5723 52.3989 18.983 53.6836 18.983C54.6599 18.983 55.4735 18.747 56.1244 18.2751C56.7924 17.7858 57.272 17.1129 57.5631 16.2565H59.9012C59.5072 17.7246 58.7621 18.8869 57.6659 19.7432C56.5697 20.5996 55.2251 21.0278 53.6322 21.0278C52.6216 21.0278 51.7052 20.8531 50.8831 20.5035C50.0609 20.1365 49.3586 19.6296 48.7763 18.983C48.211 18.3188 47.7657 17.5411 47.4403 16.6497C47.1319 15.7409 46.9778 14.736 46.9778 13.6349ZM57.7944 12.5338C57.6574 11.2405 57.2377 10.2181 56.5354 9.46654C55.8332 8.69753 54.8654 8.31303 53.6322 8.31303C52.3989 8.31303 51.414 8.69753 50.6775 9.46654C49.941 10.2181 49.4871 11.2405 49.3158 12.5338H57.7944Z" fill="#FAFAFA"/>
<path d="M63.5132 13.353C63.5132 15.035 63.9036 16.3539 64.6844 17.31C65.4652 18.2483 66.5496 18.7175 67.9377 18.7175C69.2911 18.7175 70.3321 18.2572 71.0608 17.3365C71.7896 16.3982 72.154 15.0615 72.154 13.3265C72.154 11.5915 71.7896 10.2548 71.0608 9.31645C70.3321 8.37812 69.2911 7.90895 67.9377 7.90895C66.5496 7.90895 65.4652 8.39582 64.6844 9.36956C63.9036 10.3256 63.5132 11.6534 63.5132 13.353ZM63.3571 6.15622L63.4351 8.59942C63.8516 7.67879 64.5022 6.98832 65.3871 6.52801C66.2894 6.0677 67.2523 5.83754 68.276 5.83754C69.1956 5.83754 70.0371 6.02344 70.8006 6.39523C71.564 6.74931 72.2147 7.25389 72.7526 7.90895C73.2904 8.54631 73.7069 9.3253 74.0018 10.2459C74.2968 11.1666 74.4443 12.1846 74.4443 13.2999C74.4443 14.4153 74.2968 15.4333 74.0018 16.3539C73.7069 17.2746 73.2904 18.0624 72.7526 18.7175C72.2147 19.3725 71.564 19.886 70.8006 20.2578C70.0371 20.6118 69.1956 20.7889 68.276 20.7889C67.235 20.7889 66.298 20.5676 65.4652 20.125C64.6324 19.6824 63.999 19.0362 63.5653 18.1863V25.3301H61.327V6.15622H63.3571Z" fill="#FAFAFA"/>
<path d="M77.2438 7.89502H74.8322V5.76235H77.2438V1.96183H79.5483V5.76235H84.9611V7.89502H79.5483V15.7148C79.5483 16.7902 79.7716 17.5558 80.2182 18.0115C80.6648 18.449 81.4597 18.6677 82.603 18.6677C82.9067 18.6677 83.264 18.6495 83.6749 18.613C84.0857 18.5766 84.5145 18.5128 84.9611 18.4216V20.5543C83.9071 20.7366 82.9782 20.8277 82.1743 20.8277C80.4951 20.8277 79.2535 20.4085 78.4496 19.57C77.6458 18.7133 77.2438 17.4009 77.2438 15.6328V7.89502Z" fill="#FAFAFA"/>
<path d="M139.283 7.89502H136.872V5.76235H139.283V1.96183H141.588V5.76235H147V7.89502H141.588V15.7148C141.588 16.7902 141.811 17.5558 142.257 18.0115C142.704 18.449 143.499 18.6677 144.642 18.6677C144.946 18.6677 145.303 18.6495 145.714 18.613C146.125 18.5766 146.554 18.5128 147 18.4216V20.5543C145.946 20.7366 145.017 20.8277 144.214 20.8277C142.534 20.8277 141.293 20.4085 140.489 19.57C139.685 18.7133 139.283 17.4009 139.283 15.6328V7.89502Z" fill="#FAFAFA"/>
<path d="M86.6492 0.669922H88.9779V8.43373C89.3931 7.56802 89.9978 6.90492 90.7921 6.44443C91.6044 5.98394 92.5521 5.7537 93.6352 5.7537C95.2779 5.7537 96.5596 6.26023 97.4802 7.27331C98.4189 8.26796 98.8882 9.64021 98.8882 11.3901V20.9774H96.5596V12.2742C96.5596 9.36392 95.4133 7.90878 93.1207 7.90878C92.507 7.90878 91.9383 8.0193 91.4148 8.24033C90.9094 8.44294 90.4762 8.73765 90.1151 9.12446C89.7541 9.49285 89.4743 9.94413 89.2757 10.4783C89.0771 11.0125 88.9779 11.6111 88.9779 12.2742V20.9774H86.6492V0.669922Z" fill="#FAFAFA"/>
<path d="M102.335 8.61034H99.7323V6.53892H102.335V5.50322C102.335 2.28102 104.053 0.669922 107.488 0.669922C107.835 0.669922 108.208 0.687626 108.607 0.723036C109.024 0.758444 109.475 0.811557 109.961 0.882375V2.95379C109.232 2.79445 108.521 2.71478 107.827 2.71478C106.647 2.71478 105.805 2.92723 105.302 3.35214C104.816 3.77704 104.573 4.48521 104.573 5.47666V6.53892H109.961V8.61034H104.573V20.8529H102.335V8.61034Z" fill="#FAFAFA"/>
<path d="M111.653 5.83754H113.84V20.8644H111.653V5.83754ZM111.549 1.53119H113.944V4.45241H111.549V1.53119Z" fill="#FAFAFA"/>
<path d="M126.923 15.7962C127.01 16.6992 127.383 17.4162 128.042 17.9473C128.701 18.4608 129.682 18.7175 130.983 18.7175C131.451 18.7175 131.894 18.6821 132.31 18.6112C132.744 18.5227 133.117 18.3899 133.429 18.2129C133.742 18.0359 133.985 17.8145 134.158 17.549C134.349 17.2657 134.444 16.9293 134.444 16.5398C134.444 16.1326 134.34 15.8051 134.132 15.5572C133.941 15.2917 133.664 15.0792 133.299 14.9199C132.952 14.7428 132.527 14.6101 132.024 14.5215C131.538 14.4153 131.009 14.3179 130.436 14.2294C129.794 14.1232 129.144 13.9993 128.484 13.8576C127.842 13.6983 127.261 13.477 126.741 13.1937C126.22 12.9104 125.795 12.5298 125.465 12.0518C125.153 11.5738 124.997 10.9541 124.997 10.1928C124.997 8.88269 125.483 7.82928 126.454 7.03258C127.426 6.23589 128.762 5.83754 130.462 5.83754C131.382 5.83754 132.197 5.96147 132.909 6.20933C133.638 6.45719 134.254 6.79358 134.757 7.21848C135.26 7.64339 135.659 8.14796 135.954 8.73221C136.249 9.29875 136.431 9.9184 136.5 10.5912H134.21C134.106 9.74135 133.724 9.08629 133.065 8.62598C132.406 8.14796 131.529 7.90895 130.436 7.90895C129.395 7.90895 128.606 8.11255 128.068 8.51975C127.547 8.90925 127.287 9.39612 127.287 9.98036C127.287 10.3699 127.391 10.6885 127.599 10.9364C127.808 11.1843 128.085 11.3879 128.432 11.5472C128.797 11.7065 129.213 11.8393 129.682 11.9455C130.15 12.0518 130.645 12.1491 131.165 12.2377C131.876 12.3616 132.562 12.5032 133.221 12.6626C133.898 12.8219 134.496 13.0521 135.017 13.353C135.537 13.6363 135.954 14.0258 136.266 14.5215C136.579 14.9996 136.735 15.6369 136.735 16.4336C136.735 17.1772 136.587 17.8234 136.292 18.3722C135.997 18.9211 135.59 19.3725 135.069 19.7266C134.548 20.0807 133.933 20.3463 133.221 20.5233C132.527 20.7004 131.781 20.7889 130.983 20.7889C129.994 20.7889 129.109 20.665 128.328 20.4171C127.565 20.1692 126.914 19.824 126.376 19.3814C125.838 18.9388 125.422 18.4165 125.127 17.8145C124.832 17.1949 124.667 16.5221 124.632 15.7962H126.923Z" fill="#FAFAFA"/>
<path d="M116.192 5.83754H118.271L118.351 8.88554C118.635 7.82293 119.097 7.04928 119.737 6.56459C120.377 6.07989 121.185 5.83754 122.162 5.83754H123.788V8.35424H122.029C120.856 8.35424 119.968 8.70844 119.364 9.41684C118.777 10.1252 118.484 11.104 118.484 12.353V20.9098H116.192V5.83754Z" fill="#FAFAFA"/>
</svg>
